<svg xmlns="http://www.w3.org/2000/svg" width="240" height="240" viewBox="0 0 240 240">
    <g fill="none" fill-rule="evenodd">
        <path fill="#FFF" d="M26.856 151.072c-5.962.538-12.465 3.227-18.426 1.614-15.174-4.303-6.496-37.18 0-45.844 40.745-54.34 97.007-40.75 114.152-62.655 1.134-2.424 2.225-4.921 3.324-7.435 5.497-12.57 11.21-25.577 23.68-32.18a36.719 36.719 0 0 1 8.525-3.477c10.021-2.6 20.22-.687 30.162 7.002 2.485 1.923 4.955 4.206 7.402 6.87 8.572 9.478 15.901 19.349 18.52 32.338 2.617 13.508-.524 26.496 4.71 39.484 9.946 25.458 30.886 54.552 15.801 82.097-1.699 2.493-3.671 4.326-5.779 5.649-10.538 6.618-24.459.5-24.459.5s-27.329-7.936-74.835 42.08c-18.294 19.262-44.3 26.246-68.079 21.4-3.39-.7-6.689-1.684-9.67-3.125-2.545-1.145-4.59-2.636-6.208-4.384-1.616-1.747-2.804-3.75-3.632-5.922-3.807-10.546-.014-21.303 2.867-31.38 1.114-3.745 2.308-7.601 3.416-11.45 5.626-14.509-6.297-31.72-21.471-31.182z"/>
        <g fill-rule="nonzero">
            <path fill="#FF5454" d="M140.6 49.2h26.25a.86.86 0 0 1 .86.86V76.57a.86.86 0 0 1-.86.86h-10.838l-9.468 7.21a.86.86 0 0 1-1.382-.684V77.43H140.6a.86.86 0 0 1-.86-.861V50.06a.86.86 0 0 1 .86-.861z"/>
            <path fill="#FFF" d="M156.767 57.435a1.889 1.889 0 0 1 2.67 2.67l-3.174 3.175 3.174 3.175a1.889 1.889 0 0 1-2.67 2.67l-3.175-3.174-3.174 3.175a1.889 1.889 0 0 1-2.671-2.671l3.174-3.175-3.174-3.174a1.889 1.889 0 1 1 2.67-2.67l3.175 3.174 3.175-3.175z"/>
        </g>
        <g fill-rule="nonzero">
            <path fill="#FF5454" d="M101.6 76.8h26.25a.86.86 0 0 1 .86.86v26.509a.86.86 0 0 1-.86.86h-10.838l-9.468 7.21a.86.86 0 0 1-1.382-.684v-6.525H101.6a.86.86 0 0 1-.86-.861V77.66a.86.86 0 0 1 .86-.861z"/>
            <path fill="#FFF" d="M117.767 85.035a1.889 1.889 0 0 1 2.67 2.67l-3.174 3.175 3.174 3.175a1.889 1.889 0 0 1-2.67 2.67l-3.175-3.174-3.174 3.175a1.889 1.889 0 0 1-2.671-2.671l3.174-3.175-3.174-3.174a1.889 1.889 0 1 1 2.67-2.67l3.175 3.174 3.175-3.175z"/>
        </g>
        <g fill-rule="nonzero">
            <path fill="#FF5454" d="M73.4 44.4h26.25a.86.86 0 0 1 .86.86V71.77a.86.86 0 0 1-.86.86H88.812l-9.468 7.21a.86.86 0 0 1-1.382-.684V72.63H73.4a.86.86 0 0 1-.86-.861V45.26a.86.86 0 0 1 .86-.861z"/>
            <path fill="#FFF" d="M89.567 52.635a1.889 1.889 0 0 1 2.67 2.67l-3.174 3.175 3.174 3.175a1.889 1.889 0 0 1-2.67 2.67l-3.175-3.174-3.174 3.175a1.889 1.889 0 0 1-2.671-2.671l3.174-3.175-3.174-3.174a1.889 1.889 0 1 1 2.67-2.67l3.175 3.174 3.175-3.175z"/>
        </g>
        <g fill-rule="nonzero">
            <path fill="#FF5454" d="M79.56 15h12.846c.233 0 .421.189.421.421v12.972a.421.421 0 0 1-.42.421h-5.305l-4.633 3.529a.421.421 0 0 1-.676-.335v-3.194H79.56a.421.421 0 0 1-.42-.42V15.42c0-.232.188-.421.42-.421z"/>
            <path fill="#FFF" d="M87.472 19.03a.924.924 0 0 1 1.307 1.307l-1.554 1.553 1.554 1.554a.924.924 0 1 1-1.307 1.307l-1.554-1.554-1.553 1.554a.924.924 0 0 1-1.307-1.307l1.553-1.554-1.553-1.553a.924.924 0 1 1 1.307-1.307l1.553 1.553 1.554-1.553z"/>
        </g>
        <g fill-rule="nonzero">
            <path fill="#FF5454" d="M144.96 19.8h12.846c.233 0 .421.189.421.421v12.972a.421.421 0 0 1-.42.421h-5.305l-4.633 3.529a.421.421 0 0 1-.676-.335v-3.194h-2.233a.421.421 0 0 1-.42-.42V20.22c0-.232.188-.421.42-.421z"/>
            <path fill="#FFF" d="M152.872 23.83a.924.924 0 0 1 1.307 1.307l-1.554 1.553 1.554 1.554a.924.924 0 1 1-1.307 1.307l-1.554-1.554-1.553 1.554a.924.924 0 0 1-1.307-1.307l1.553-1.554-1.553-1.553a.924.924 0 1 1 1.307-1.307l1.553 1.553 1.554-1.553z"/>
        </g>
        <g fill-rule="nonzero">
            <path fill="#FF5454" d="M107 24h26.25a.86.86 0 0 1 .86.86V51.37a.86.86 0 0 1-.86.86h-10.838l-9.468 7.21a.86.86 0 0 1-1.382-.684V52.23H107a.86.86 0 0 1-.86-.861V24.86A.86.86 0 0 1 107 24z"/>
            <path fill="#FFF" d="M123.167 32.235a1.889 1.889 0 0 1 2.67 2.67l-3.174 3.175 3.174 3.175a1.889 1.889 0 0 1-2.67 2.67l-3.175-3.174-3.174 3.175a1.889 1.889 0 0 1-2.671-2.671l3.174-3.175-3.174-3.174a1.889 1.889 0 1 1 2.67-2.67l3.175 3.174 3.175-3.175z"/>
        </g>
        <path fill="#1C518F" d="M79.95 93h80.869c5.523 0 10 4.477 10 10a10 10 0 0 1-1.97 5.96l-29.658 39.963a8 8 0 0 0-1.576 4.768v25.415a10 10 0 0 1-5.755 9.055l-14.462 6.779a10 10 0 0 1-14.244-9.055v-32.194a8 8 0 0 0-1.576-4.768L71.92 108.959A10 10 0 1 1 79.95 93z"/>
        <path fill="#002A5B" d="M147.638 137.541l-8.447 11.382a8 8 0 0 0-1.576 4.768v25.415a10 10 0 0 1-5.755 9.055l-14.462 6.779a10 10 0 0 1-14.244-9.055v-32.194a8 8 0 0 0-1.576-4.768l-26.02-35.06 72.08 23.678z"/>
    </g>
</svg>
