<svg xmlns="http://www.w3.org/2000/svg" width="240" height="240" viewBox="0 0 240 240">
    <g fill="none" fill-rule="evenodd">
        <path fill="#FFF" d="M6.974 67.173C24.44 26.38 73.21 3.787 84.919 14.583c9.886 9.117-4.852 43.691-.548 45.424 4.441 1.788 12.74-37.98 40.802-53.165 23.397-12.66 58.112-6.92 65.857 10.377 10.046 22.437-31.062 51.423-20.444 75.985 7.712 17.842 32.546 9.822 55.745 38.75 5.568 6.942 14.235 18.064 13.64 32.79-.585 14.485-9.996 29.184-21.624 35.183-33.999 17.54-85.761-39.901-94.285-30.261-7.226 8.17 31.345 47.856 22.138 63.347-8.879 14.94-61.233 5.763-96.87-26.013C14.564 176-13.594 115.2 6.973 67.173z"/>
        <g transform="rotate(-10 437.44 -652.34)">
            <rect width="75.6" height="33.6" x=".453" y=".251" fill="#FFF" stroke="#E3E7EB" rx="10"/>
            <rect width="27.6" height="6" x="8.853" y="8.651" fill="#4C698C" rx="3"/>
            <rect width="22.8" height="6" x="44.853" y="19.451" fill="#4C698C" rx="3"/>
            <rect width="12.6" height="6" x="8.853" y="19.451" fill="#4C698C" rx="3"/>
            <rect width="17.4" height="6" x="24.453" y="19.451" fill="#FF5454" rx="3"/>
        </g>
        <g transform="rotate(10 -91.422 279.493)">
            <rect width="75.6" height="66" x=".453" y=".749" fill="#FFF" stroke="#E3E7EB" rx="10"/>
            <rect width="27.6" height="6" x="8.853" y="9.149" fill="#4C698C" rx="3"/>
            <rect width="22.8" height="6" x="44.853" y="19.949" fill="#4C698C" rx="3"/>
            <rect width="12.6" height="6" x="8.853" y="19.949" fill="#4C698C" rx="3"/>
            <rect width="49.8" height="6" x="8.853" y="30.749" fill="#4C698C" rx="3"/>
            <rect width="22.8" height="6" x="8.853" y="41.549" fill="#4C698C" rx="3"/>
            <rect width="29.4" height="6" x="34.653" y="41.549" fill="#4C698C" rx="3"/>
            <rect width="44.4" height="6" x="8.853" y="52.349" fill="#4C698C" rx="3"/>
            <rect width="17.4" height="6" x="24.453" y="19.949" fill="#FF5454" rx="3"/>
        </g>
        <path fill="#1C518F" d="M79.106 93h80.869c5.523 0 10 4.477 10 10a10 10 0 0 1-1.97 5.96l-29.658 39.963a8 8 0 0 0-1.575 4.768v25.415a10 10 0 0 1-5.756 9.055l-14.462 6.779a10 10 0 0 1-14.244-9.055v-32.194a8 8 0 0 0-1.576-4.768l-29.658-39.964A10 10 0 1 1 79.106 93z"/>
        <path fill="#002A5B" d="M146.794 137.541l-8.447 11.382a8 8 0 0 0-1.575 4.768v25.415a10 10 0 0 1-5.756 9.055l-14.462 6.779a10 10 0 0 1-14.244-9.055v-32.194a8 8 0 0 0-1.576-4.768l-26.02-35.06 72.08 23.678z"/>
        <g transform="translate(128.156 13.8)">
            <rect width="75.6" height="33.6" fill="#FFF" stroke="#E3E7EB" rx="10"/>
            <rect width="21" height="6" x="8.4" y="8.4" fill="#4C698C" rx="3"/>
            <rect width="38.4" height="6" x="8.4" y="19.2" fill="#4C698C" rx="3"/>
            <rect width="17.4" height="6" x="49.8" y="19.2" fill="#FF5454" rx="3"/>
        </g>
    </g>
</svg>
