<svg xmlns="http://www.w3.org/2000/svg" xmlns:xlink="http://www.w3.org/1999/xlink" width="240" height="251" viewBox="0 0 240 251">
    <defs>
        <path id="a" d="M24.719 10.68c1.08 4.61.791 9.277-.477 12.825.145-2.888-.822-6.604-2.226-10.366C14.1 20.554 8.313 29.372 4.823 38.454c4.266 4.057 7.797 10.087 8.398 15.241-1.513-3.574-5.693-7.465-10.13-10.64-3.41 11.123-3.827 22.358-1.649 32.07 7.043.707 14.35 5.111 18.715 9.5-4.223-2.136-10.414-3.34-16.742-3.293 8.54 23.123 27.658 24.648 30.883 18.9l.407-.57c-9.982-8.026-16.573-20.383-16.16-33.8-.787-22.418 7.099-44.685 20.767-61.662-13.19 17.345-20.31 39.756-18.918 61.534.15 13.063 6.518 24.377 15.956 31.512 2.102-4.777 2.983-13.345 2.642-25.702l-.18-3.02c-.273-7.372-.512-13.664-.715-18.876-5.101.534-9.818 2.395-12.154 5.197 1.538-4.332 6.567-7.878 12.179-8.567-.188-6.812-.049-14.698.712-23.77-3.714.313-7.123 1.582-8.84 3.59 1.259-3.321 5.194-5.852 9.1-6.715.595-5.847 1.62-12.039 3.44-19.039-6.481 2.35-12.655 5.96-17.815 10.336z"/>
        <path id="c" d="M29.758 1.073c-.611 2.702-1.961 5.065-3.544 6.581.818-1.47 1.258-3.675 1.48-6.019-6.103 1.757-11.435 4.818-15.617 8.634 1.222 3.264 1.548 7.366.543 10.223.115-2.275-1.102-5.431-2.642-8.282C5.315 17.115 2.21 22.88.874 28.544c3.554 2.258 6.3 6.521 7.488 9.987-1.693-2.25-4.667-4.54-8.035-6.21-1.405 14.384 8.344 20.307 11.53 18.165l.361-.189c-3.234-6.875-3.559-15.106.103-22.013 5.337-11.938 15.234-21.472 26.84-26.688-11.447 5.537-20.975 15.352-25.825 27.117-3.273 6.873-2.8 14.498.374 20.76 2.342-1.935 5.008-6.18 7.998-12.735l.68-1.628c1.747-3.93 3.235-7.285 4.464-10.066-2.842-1.088-5.821-1.38-7.779-.54 1.928-1.854 5.504-2.36 8.658-1.216 1.648-3.614 3.746-7.701 6.478-12.243-2.05-.832-4.184-1.082-5.61-.492 1.52-1.4 4.256-1.669 6.549-1.073a70.986 70.986 0 0 1 6.71-9.037 34.138 34.138 0 0 0-4.26-.265c-2.666 0-5.325.305-7.84.895z"/>
    </defs>
    <g fill="none" fill-rule="evenodd">
        <path fill="#FFF" d="M31.851 42.778c8.294-10.97 24.41-7.082 33.839 1.528 16.577 15.137 13.739 22.353 29.787 34.285 25.821 19.198 54.524 15.872 66.002-19.198 5.068-15.488 1.761-30.753 5.931-42.588 6.205-17.612 32.43-22.878 48.924-8.555 23.8 20.666 30.93 85.234 15.492 124.058-20.317 51.091-43.335 46.291-42.013 63.094.74 9.418 8.036 21.862 4.77 33.064-5.17 17.726-26.746 29.67-60.747 17.716-23.197-8.156-77.64-14.771-107.26-26.063C9.809 213.727-.824 198.243.05 191.893c1.303-9.441 16.457-5.509 26.297-20.778 20.696-32.116-12.315-104.77 5.504-128.337z"/>
        <path fill="#6AC18C" d="M87.158 65.097c-.746 9.027-.883 16.875-.7 23.653-5.503.685-10.437 4.214-11.946 8.524 2.292-2.788 6.918-4.64 11.923-5.17.199 5.186.433 11.447.702 18.782l.176 3.005c.334 12.297-.53 20.822-2.592 25.576-9.258-7.1-15.504-18.358-15.651-31.357-1.365-21.67 5.618-43.972 18.557-61.232-13.408 16.894-21.143 39.051-20.372 61.36-.404 13.351 6.06 25.647 15.853 33.633l-.4.567c-3.163 5.72-21.918 4.202-30.295-18.807 6.208-.047 12.28 1.153 16.424 3.278-4.282-4.368-11.45-8.75-18.359-9.454-2.136-9.664-1.728-20.844 1.617-31.912 4.353 3.159 8.453 7.03 9.938 10.587-.59-5.129-4.054-11.13-8.238-15.165 3.423-9.038 9.1-17.812 16.866-25.191 1.376 3.744 2.325 7.441 2.183 10.314 1.244-3.53 1.527-8.173.467-12.762 5.062-4.353 11.118-7.947 17.476-10.284-1.785 6.965-2.79 13.126-3.375 18.946-3.83.857-7.69 3.376-8.926 6.682 1.685-2 5.028-3.262 8.672-3.573"/>
        <g transform="translate(49 42.88)">
            <mask id="b" fill="#fff">
                <use xlink:href="#a"/>
            </mask>
            <path fill="#6AC18C" d="M43.645-.896l-47.17 1.961L.57 105.388l47.17-1.961z" mask="url(#b)"/>
        </g>
        <path fill="#62AE7E" d="M102.29 97.78c-2.754 4.588-4.869 8.717-6.53 12.367-3.178-1.156-6.784-.644-8.726 1.228 1.973-.847 4.975-.554 7.84.546-1.239 2.81-2.739 6.198-4.5 10.167l-.684 1.645c-3.015 6.621-5.702 10.91-8.061 12.864-3.2-6.325-3.678-14.027-.379-20.97 4.89-11.884 14.492-21.798 26.03-27.39-11.698 5.268-21.673 14.898-27.052 26.957-3.69 6.977-3.364 15.291-.103 22.235l-.366.191c-3.21 2.163-13.036-3.82-11.62-18.35 3.395 1.69 6.393 4.002 8.098 6.274-1.198-3.5-3.965-7.806-7.547-10.088 1.348-5.72 4.476-11.545 9.176-16.498 1.552 2.88 2.78 6.067 2.664 8.365 1.012-2.886.684-7.029-.547-10.327 4.215-3.854 9.589-6.946 15.74-8.72-.224 2.368-.668 4.594-1.492 6.08 1.595-1.532 2.956-3.92 3.572-6.649A34.916 34.916 0 0 1 110 87.071a71.733 71.733 0 0 0-6.765 9.129c-2.31-.602-5.068-.33-6.6 1.084 1.437-.596 3.588-.344 5.654.497"/>
        <g transform="translate(67 86.804)">
            <mask id="d" fill="#fff">
                <use xlink:href="#c"/>
            </mask>
            <path fill="#62AE7E" d="M42.767.092l-25.521-11.62-24.601 55.67 25.52 11.62z" mask="url(#d)"/>
        </g>
        <path fill="#EDB6A4" d="M171.808 107.589l11.754-13.676c2.28-2.651 2.31-6.655.074-9.346-2.568-3.089-7.107-3.27-9.895-.395l-2.657 2.74.724 20.677zM164.633 117.532s2.146.814 4.31 1.688c3.005 1.21 4.967 4.258 4.863 7.613-.141 4.593-1.98 10.261-10.234 10.104-.94-.018-1.838-.397-2.553-1.032-2.102-1.866-6.005-6.398-2.43-13.158.074-.19 2.445-6.246 6.044-5.215"/>
        <path fill="#DE9F8A" d="M83.44 173.782l42.55 18.714 17.037-18.159-51.5-21.55z"/>
        <path fill="#002A5B" d="M187.12 61.544c1.375.576 2.041 2.203 1.49 3.635l-43.64 113.588c-.552 1.433-2.114 2.128-3.488 1.553l-56.426-23.61c-1.374-.576-2.04-2.203-1.489-3.636l43.64-113.588c.552-1.432 2.114-2.127 3.488-1.552l56.426 23.61z"/>
        <path fill="#FEFEFE" d="M178.612 66.1c1.091.456 1.62 1.748 1.182 2.885l-37.043 96.458c-.438 1.137-1.677 1.69-2.768 1.233l-44.792-18.743c-1.091-.456-1.62-1.748-1.183-2.885l37.044-96.459c.437-1.137 1.677-1.689 2.768-1.233L178.612 66.1z"/>
        <path fill="#45DA6F" d="M135.76 159.499l-33.38-13.985a4 4 0 0 1-2.182-5.137l.05-.131a3.93 3.93 0 0 1 5.184-2.203l33.38 13.985a4 4 0 0 1 2.183 5.137l-.051.13a3.93 3.93 0 0 1-5.183 2.204z"/>
        <path fill="#45DA6E" d="M112.097 113.615l38.805 14.483a.592.592 0 0 1 .297.863.87.87 0 0 1-1.046.361l-38.804-14.483a.592.592 0 0 1-.298-.863.87.87 0 0 1 1.046-.361z"/>
        <text fill="#002A5B" font-family="Montserrat-Medium, Montserrat" font-size="5" font-weight="400" transform="rotate(22 -141.277 363.58)">
            <tspan x=".21" y="15.122">Doğrulama</tspan> <tspan x=".21" y="21.122">Kodu</tspan>
        </text>
        <text fill="#002A5B" font-family="Montserrat-ExtraBold, Montserrat" font-size="10" font-weight="600" transform="rotate(22 -155.208 336.068)">
            <tspan x="9.957" y="27.228">SV****</tspan>
        </text>
        <path fill="#EDB6A4" d="M156.872 147.874l.858 1.245s-10.367 6.753-10.943 15.233c-.389 5.725 5.625 9.413 10.144 6.135 1.253-.908 2.601-2.247 4.015-4.174 5.605-4.192 11.555-7.542 10.23-14.302-.465-2.374-1.975-4.861-3.542-6.816-1.794-2.238-4.008-5.084-7.41-6.037"/>
        <path fill="#FEFEFE" d="M114.185 162.35c.67-1.738 2.564-2.581 4.233-1.883 1.668.698 2.477 2.673 1.807 4.411-.67 1.739-2.564 2.583-4.232 1.885-1.668-.698-2.477-2.673-1.808-4.412"/>
        <path fill="#EDB6A4" d="M139.788 179.61s3.29 4.856-17.284 17.849c-20.575 12.993-40.982 6.007-51.15 17.616-10.169 11.61-17.18-35.108-17.18-35.108l13.97-12.91c2.307-2.132 3.923-4.956 4.627-8.084l7.27-32.324a12.943 12.943 0 0 1 3.342-6.201L106.7 96.54c1.863-1.91 4.984-1.335 6.09 1.132 2.366 5.282 3.034 14.918-13.04 26.348-2.59 1.841-3.258 5.505-1.514 8.22 5.808 9.04 10.633 22.535-8.22 36.486"/>
        <path fill="#C28E7D" d="M139.788 179.61s-1.548 4.465-5.64 3.2c-4.092-1.263-7.11-5.303-9.325-5.18-6.445.355-9.959-2.132-11.013-2.568-1.054-.436-2.986-1.504-5.45-3.042a37.938 37.938 0 0 1-2.55-1.775 47.793 47.793 0 0 0-7.688-4.715c-1.348-.659-1.673-2.506-.636-3.62l42.302 17.7z"/>
    </g>
</svg>
